<svg width="21" height="19" viewBox="0 0 21 19" fill="none" xmlns="http://www.w3.org/2000/svg">
<path fill-rule="evenodd" clip-rule="evenodd" d="M12.084 1.19367C13.8274 0.0877656 16.643 -0.958 19.0745 1.52158C24.8463 7.40767 14.9481 18.75 10.4167 18.75C5.88529 18.75 -4.01301 7.40767 1.75888 1.52158C4.19033 -0.957972 7.00587 0.0877788 8.74926 1.19368C9.73435 1.81856 11.099 1.81856 12.084 1.19367ZM6.03002 3.8553C6.43336 3.70203 6.63607 3.25081 6.4828 2.84748C6.32953 2.44415 5.87831 2.24143 5.47498 2.3947C4.88045 2.62063 4.30565 2.98795 3.76792 3.52108C3.08632 4.19687 2.63222 4.96425 2.37844 5.78721C2.25129 6.19952 2.48247 6.63684 2.89478 6.76398C3.3071 6.89113 3.74441 6.65995 3.87156 6.24764C4.0486 5.67352 4.36621 5.1282 4.86803 4.63067C5.26207 4.23999 5.65429 3.99808 6.03002 3.8553Z" fill="#1F7FE6"/>
</svg>
