<svg width="21" height="21" viewBox="0 0 21 21" fill="none" xmlns="http://www.w3.org/2000/svg">
<path fill-rule="evenodd" clip-rule="evenodd" d="M20.8333 10.4167C20.8333 16.1696 16.1696 20.8333 10.4167 20.8333C4.6637 20.8333 0 16.1696 0 10.4167C0 4.6637 4.6637 0 10.4167 0C16.1696 0 20.8333 4.6637 20.8333 10.4167ZM10.4167 8.59375C10.8481 8.59375 11.1979 8.94353 11.1979 9.375V15.625C11.1979 16.0565 10.8481 16.4063 10.4167 16.4063C9.9852 16.4063 9.63542 16.0565 9.63542 15.625V9.375C9.63542 8.94353 9.9852 8.59375 10.4167 8.59375ZM10.4167 7.29167C10.992 7.29167 11.4583 6.8253 11.4583 6.25C11.4583 5.6747 10.992 5.20833 10.4167 5.20833C9.84137 5.20833 9.375 5.6747 9.375 6.25C9.375 6.8253 9.84137 7.29167 10.4167 7.29167Z" fill="#80BDFF"/>
</svg>
